<svg xmlns="http://www.w3.org/2000/svg" xmlns:xlink="http://www.w3.org/1999/xlink" style="isolation:isolate" viewBox="0 0 273.747 273.747" width="273.747pt" height="273.747pt"><defs><clipPath id="_clipPath_PbdNzSNovCqaXTji0M6yKfIa4cd6pcFP"><rect width="273.747" height="273.747"/></clipPath></defs><g clip-path="url(#_clipPath_PbdNzSNovCqaXTji0M6yKfIa4cd6pcFP)"><rect width="273.747" height="273.747" style="fill:rgb(0,0,0)" fill-opacity="0"/><g><defs><linearGradient id="_lgradient_2" x1="0.045818091195266475" y1="0.044779361003138285" x2="0.9542950209929167" y2="0.9532562908007888"><stop offset="0.8333333333333334%" style="stop-color:#642EFF"/><stop offset="49.166666666666664%" style="stop-color:#632EFD"/><stop offset="97.91666666666666%" style="stop-color:#351886"/></linearGradient></defs><path d="M 151.053 16.029 L 257.721 122.697 C 265.546 130.522 265.546 143.228 257.721 151.053 L 151.053 257.721 C 143.228 265.546 130.522 265.546 122.697 257.721 L 16.029 151.053 C 8.204 143.228 8.204 130.522 16.029 122.697 L 122.697 16.029 C 130.522 8.204 143.228 8.204 151.053 16.029 Z" style="stroke:none;fill:url(#_lgradient_2);stroke-miterlimit:10;"/><path d="M 151.053 16.029 L 257.721 122.697 C 265.546 130.522 265.546 143.228 257.721 151.053 L 151.053 257.721 C 143.228 265.546 130.522 265.546 122.697 257.721 L 16.029 151.053 C 8.204 143.228 8.204 130.522 16.029 122.697 L 122.697 16.029 C 130.522 8.204 143.228 8.204 151.053 16.029 Z" style="fill:none;stroke:rgb(255,255,255);stroke-width:10;stroke-linecap:square;stroke-miterlimit:2;"/><clipPath id="_clipPath_oPPYSuHqAZzzvkICZ2DCodkMUpxIjguY"><path d="M 151.053 16.029 L 257.721 122.697 C 265.546 130.522 265.546 143.228 257.721 151.053 L 151.053 257.721 C 143.228 265.546 130.522 265.546 122.697 257.721 L 16.029 151.053 C 8.204 143.228 8.204 130.522 16.029 122.697 L 122.697 16.029 C 130.522 8.204 143.228 8.204 151.053 16.029 Z" style="stroke:none;fill:url(#_lgradient_2);stroke-miterlimit:10;"/><path d="M 151.053 16.029 L 257.721 122.697 C 265.546 130.522 265.546 143.228 257.721 151.053 L 151.053 257.721 C 143.228 265.546 130.522 265.546 122.697 257.721 L 16.029 151.053 C 8.204 143.228 8.204 130.522 16.029 122.697 L 122.697 16.029 C 130.522 8.204 143.228 8.204 151.053 16.029 Z" style="fill:none;stroke:#000000;stroke-width:10;stroke-linecap:square;stroke-miterlimit:2;"/></clipPath><g clip-path="url(#_clipPath_oPPYSuHqAZzzvkICZ2DCodkMUpxIjguY)"><path d=" M 157.87 189.094 L 157.87 189.094 L 157.87 189.094 Q 151.098 189.094 138.118 182 L 138.118 182 L 138.118 182 Q 125.138 174.905 123.042 174.421 L 123.042 174.421 L 123.042 174.421 Q 113.368 187.159 104.984 187.159 L 104.984 187.159 L 104.984 187.159 Q 102.726 187.159 98.212 180.871 L 98.212 180.871 L 98.212 180.871 Q 93.697 174.583 93.697 169.101 L 93.697 169.101 L 93.697 169.101 Q 93.697 166.682 98.695 163.054 L 98.695 163.054 L 98.695 163.054 Q 103.694 159.426 110.143 157.975 L 110.143 157.975 L 110.143 157.975 Q 114.497 147.817 118.769 127.179 L 118.769 127.179 L 118.769 127.179 Q 123.042 106.54 123.042 90.9 L 123.042 90.9 L 123.042 90.9 Q 123.042 88.32 121.349 85.096 L 121.349 85.096 L 121.349 85.096 Q 119.656 81.871 118.044 79.936 L 118.044 79.936 L 116.27 78.001 L 116.754 74.776 L 116.754 74.776 Q 125.622 70.745 153.516 70.745 L 153.516 70.745 L 153.516 70.745 Q 156.096 74.776 156.096 84.451 L 156.096 84.451 L 156.096 84.451 Q 156.096 94.125 147.55 117.988 L 147.55 117.988 L 147.55 117.988 Q 139.005 141.851 130.459 159.426 L 130.459 159.426 L 130.459 159.426 Q 146.583 163.618 161.256 163.618 L 161.256 163.618 L 161.256 163.618 Q 164.642 163.618 166.818 162.006 L 166.818 162.006 L 166.818 162.006 Q 168.995 160.394 171.575 155.234 L 171.575 155.234 L 180.443 158.298 L 180.443 158.298 Q 177.863 173.615 172.623 181.355 L 172.623 181.355 L 172.623 181.355 Q 167.383 189.094 157.87 189.094 Z " fill="rgb(255,255,255)"/></g></g></g></svg>